<?xml version="1.0" encoding="utf-8"?>
<!-- Generator: Adobe Illustrator 28.2.0, SVG Export Plug-In . SVG Version: 6.00 Build 0)  -->
<svg version="1.1" id="Layer_1" xmlns="http://www.w3.org/2000/svg" xmlns:xlink="http://www.w3.org/1999/xlink" x="0px" y="0px"
	 viewBox="0 0 24 24" style="enable-background:new 0 0 24 24;" xml:space="preserve">
<style type="text/css">
	.st0{fill:none;}
</style>
<g>
	<path d="M3,19.8c-0.1,0-0.2,0-0.3-0.1c-0.3-0.1-0.4-0.4-0.4-0.7V5c0-0.3,0.2-0.6,0.4-0.7C3,4.2,3.3,4.2,3.5,4.4l8,7
		c0.2,0.1,0.3,0.3,0.3,0.6s-0.1,0.4-0.3,0.6l-8,7C3.4,19.7,3.2,19.8,3,19.8z M3.8,6.7v10.7L9.9,12L3.8,6.7z"/>
</g>
<g>
	<path d="M14,19.8c-0.1,0-0.2,0-0.3-0.1c-0.3-0.1-0.4-0.4-0.4-0.7V5c0-0.3,0.2-0.6,0.4-0.7c0.3-0.1,0.6-0.1,0.8,0.1l8,7
		c0.2,0.1,0.3,0.3,0.3,0.6s-0.1,0.4-0.3,0.6l-8,7C14.4,19.7,14.2,19.8,14,19.8z M14.8,6.7v10.7l6.1-5.3L14.8,6.7z"/>
</g>
</svg>
