<?xml version="1.0" encoding="utf-8"?>
<!-- Generator: Adobe Illustrator 28.2.0, SVG Export Plug-In . SVG Version: 6.00 Build 0)  -->
<svg version="1.1" id="Layer_1" xmlns="http://www.w3.org/2000/svg" xmlns:xlink="http://www.w3.org/1999/xlink" x="0px" y="0px"
	 viewBox="0 0 24 24" style="enable-background:new 0 0 24 24;" xml:space="preserve">
<style type="text/css">
	.st0{fill:none;}
</style>
<g>
	<path d="M9,19.8H7c-1,0-1.8-0.8-1.8-1.8V6C5.2,5,6,4.2,7,4.2h2c1,0,1.8,0.8,1.8,1.8v12C10.8,19,10,19.8,9,19.8z M7,5.8
		C6.9,5.8,6.8,5.9,6.8,6v12c0,0.1,0.1,0.2,0.2,0.2h2c0.1,0,0.2-0.1,0.2-0.2V6c0-0.1-0.1-0.2-0.2-0.2H7z"/>
</g>
<g>
	<path d="M17,19.8h-2c-1,0-1.8-0.8-1.8-1.8V6c0-1,0.8-1.8,1.8-1.8h2c1,0,1.8,0.8,1.8,1.8v12C18.8,19,18,19.8,17,19.8z M15,5.8
		c-0.1,0-0.2,0.1-0.2,0.2v12c0,0.1,0.1,0.2,0.2,0.2h2c0.1,0,0.2-0.1,0.2-0.2V6c0-0.1-0.1-0.2-0.2-0.2H15z"/>
</g>
</svg>
