<?xml version="1.0" encoding="utf-8"?>
<!-- Generator: Adobe Illustrator 28.2.0, SVG Export Plug-In . SVG Version: 6.00 Build 0)  -->
<svg version="1.1" id="Layer_1" xmlns="http://www.w3.org/2000/svg" xmlns:xlink="http://www.w3.org/1999/xlink" x="0px" y="0px"
	 viewBox="0 0 24 24" style="enable-background:new 0 0 24 24;" xml:space="preserve">
<g>
	<path d="M12,3.2c0.2,0,0.5,0,0.7,0c2.3,0.2,4.3,1.3,5.8,3c1.5,1.7,2.2,3.9,2,6.2c-0.2,2.3-1.3,4.3-3,5.8c-0.3,0.3-0.8,0.2-1.1-0.1
		c-0.3-0.3-0.2-0.8,0.1-1.1c1.4-1.2,2.3-2.9,2.5-4.8s-0.4-3.7-1.6-5.1c-1.2-1.4-2.9-2.3-4.8-2.5c-1.9-0.2-3.7,0.4-5.1,1.6
		C6.1,7.6,5.2,9.3,5,11.2c-0.2,1.9,0.4,3.7,1.6,5.1c0.3,0.3,0.5,0.6,0.8,0.8c0.3,0.3,0.4,0.7,0.1,1.1c-0.3,0.3-0.7,0.4-1.1,0.1
		c-0.4-0.3-0.7-0.6-1-1c-1.5-1.7-2.2-3.9-2-6.2c0.2-2.3,1.3-4.3,3-5.8C8.1,3.9,10,3.2,12,3.2z"/>
</g>
<g>
	<path d="M12,10.9c0.4,0,0.8,0.3,0.8,0.8v8c0,0.4-0.3,0.8-0.8,0.8s-0.8-0.3-0.8-0.8v-8C11.2,11.3,11.6,10.9,12,10.9z"/>
</g>
</svg>
